<svg width="1024" height="1024" viewBox="0 0 1024 1024" fill="none" xmlns="http://www.w3.org/2000/svg">
<rect width="1024" height="1024" fill="#3B82F6"/>
<path d="M657.5 803.333V715.833H570V657.5H657.5V570H715.833V657.5H803.333V715.833H715.833V803.333H657.5ZM482.5 482.5C506.806 482.5 527.465 473.993 544.479 456.979C561.493 439.965 570 419.306 570 395C570 370.694 561.493 350.035 544.479 333.021C527.465 316.007 506.806 307.5 482.5 307.5C458.194 307.5 437.535 316.007 420.521 333.021C403.507 350.035 395 370.694 395 395C395 419.306 403.507 439.965 420.521 456.979C437.535 473.993 458.194 482.5 482.5 482.5ZM438.75 409.583C434.861 409.583 431.458 408.125 428.542 405.208C425.625 402.292 424.167 398.889 424.167 395C424.167 391.111 425.625 387.708 428.542 384.792C431.458 381.875 434.861 380.417 438.75 380.417C442.639 380.417 446.042 381.875 448.958 384.792C451.875 387.708 453.333 391.111 453.333 395C453.333 398.889 451.875 402.292 448.958 405.208C446.042 408.125 442.639 409.583 438.75 409.583ZM482.5 409.583C478.611 409.583 475.208 408.125 472.292 405.208C469.375 402.292 467.917 398.889 467.917 395C467.917 391.111 469.375 387.708 472.292 384.792C475.208 381.875 478.611 380.417 482.5 380.417C486.389 380.417 489.792 381.875 492.708 384.792C495.625 387.708 497.083 391.111 497.083 395C497.083 398.889 495.625 402.292 492.708 405.208C489.792 408.125 486.389 409.583 482.5 409.583ZM526.25 409.583C522.361 409.583 518.958 408.125 516.042 405.208C513.125 402.292 511.667 398.889 511.667 395C511.667 391.111 513.125 387.708 516.042 384.792C518.958 381.875 522.361 380.417 526.25 380.417C530.139 380.417 533.542 381.875 536.458 384.792C539.375 387.708 540.833 391.111 540.833 395C540.833 398.889 539.375 402.292 536.458 405.208C533.542 408.125 530.139 409.583 526.25 409.583ZM278.333 745C262.292 745 248.564 739.293 237.15 727.879C225.736 716.465 220.019 702.728 220 686.667V278.333C220 262.292 225.717 248.564 237.15 237.15C248.583 225.736 262.311 220.019 278.333 220H686.667C702.708 220 716.446 225.717 727.879 237.15C739.312 248.583 745.019 262.311 745 278.333V521.875C735.278 518.472 725.556 515.925 715.833 514.233C706.111 512.542 696.389 511.686 686.667 511.667C638.056 511.667 596.736 528.681 562.708 562.708C528.681 596.736 511.667 638.056 511.667 686.667C511.667 696.389 512.522 706.111 514.233 715.833C515.944 725.556 518.492 735.278 521.875 745H278.333Z" fill="white"/>
</svg>
