<svg width="1024" height="1024" viewBox="0 0 1024 1024" fill="none" xmlns="http://www.w3.org/2000/svg">
<rect width="1024" height="1024" fill="#048E49"/>
<rect width="936" height="902" transform="translate(44 61)" fill="#048E49"/>
<g clip-path="url(#clip0_10_20)">
<rect width="936" height="902" transform="translate(44 61)" fill="#048E49"/>
<path d="M512 98.583V173.75" stroke="white" stroke-width="80" stroke-linecap="round" stroke-linejoin="round"/>
<path d="M512 850.25V925.417" stroke="white" stroke-width="80" stroke-linecap="round" stroke-linejoin="round"/>
<path d="M208.578 219.602L263.958 272.97" stroke="white" stroke-width="80" stroke-linecap="round" stroke-linejoin="round"/>
<path d="M760.039 751.03L815.419 804.399" stroke="white" stroke-width="80" stroke-linecap="round" stroke-linejoin="round"/>
<path d="M83 512H161" stroke="white" stroke-width="80" stroke-linecap="round" stroke-linejoin="round"/>
<path d="M863 512H941" stroke="white" stroke-width="80" stroke-linecap="round" stroke-linejoin="round"/>
<path d="M208.578 804.399L263.958 751.03" stroke="white" stroke-width="80" stroke-linecap="round" stroke-linejoin="round"/>
<path d="M760.039 272.97L815.419 219.602" stroke="white" stroke-width="80" stroke-linecap="round" stroke-linejoin="round"/>
<path d="M511.73 737.333C640.965 737.333 745.73 636.373 745.73 511.833C745.73 387.293 640.965 286.333 511.73 286.333C382.496 286.333 277.73 387.293 277.73 511.833C277.73 636.373 382.496 737.333 511.73 737.333Z" stroke="white" stroke-width="40" stroke-linecap="round" stroke-linejoin="round"/>
<path d="M434.282 491.028L511.734 436.935L589.185 491.028L559.77 578.409H463.967L434.282 491.028ZM511.734 278.816C544.477 278.816 575.782 284.971 605.647 297.281C635.512 309.591 661.239 326.148 682.829 346.953C704.418 367.758 721.599 392.551 734.373 421.331C747.147 450.111 753.534 480.279 753.534 511.833C753.534 543.387 747.147 573.555 734.373 602.335C721.599 631.115 704.418 655.908 682.829 676.713C661.239 697.518 635.512 714.076 605.647 726.385C575.782 738.695 544.477 744.85 511.734 744.85C478.99 744.85 447.685 738.695 417.82 726.385C387.955 714.076 362.228 697.518 340.638 676.713C319.049 655.908 301.868 631.115 289.094 602.335C276.32 573.555 269.934 543.387 269.934 511.833C269.934 480.279 276.32 450.111 289.094 421.331C301.868 392.551 319.049 367.758 340.638 346.953C362.228 326.148 387.955 309.591 417.82 297.281C447.685 284.971 478.99 278.816 511.734 278.816ZM678.781 629.902C705.587 594.707 718.991 555.35 718.991 511.833V511.053L691.464 534.198L626.697 475.944L643.698 391.944L679.86 395.065C652.874 359.349 617.881 334.903 574.882 321.727L589.185 353.975L511.734 395.325L434.282 353.975L448.585 321.727C405.586 334.903 370.594 359.349 343.607 395.065L380.039 391.944L396.771 475.944L332.003 534.198L304.476 511.053V511.833C304.476 555.35 317.88 594.707 344.686 629.902L352.782 595.573L440.759 605.976L478.27 683.475L446.966 701.419C468.015 708.181 489.605 711.562 511.734 711.562C533.863 711.562 555.452 708.181 576.501 701.419L545.197 683.475L582.708 605.976L670.685 595.573L678.781 629.902Z" fill="white"/>
</g>
<defs>
<clipPath id="clip0_10_20">
<rect width="936" height="902" fill="white" transform="translate(44 61)"/>
</clipPath>
</defs>
</svg>
